:SAMPLES-PER-SECOND 30
:FULLY-SPECIFIED
:DEGREES
25
root  34.87694207 36.51032335 -14.90927118 8.136364937 -1.840110779 3.278399467
lowerback  -8.57303524 0.07245032489 0.01566294022
upperback  -3.282969952 0.5116588473 -3.17076993
thorax  1.435189962 0.3907935619 -3.229285955
lowerneck  -14.67500019 -0.4789960086 -0.4814069867
upperneck  15.61439991 -1.365939975 6.136449814
head  7.252471447 0.0158254467 1.964291692
lclavicle  0 -4.497500157e-015 -2.743230041e-014
lhumerus  -44.90950012 26.53389931 69.0904007
lradius  -0.009002206847 -6.507048965e-006 30.06389999
lwrist  4.824992743e-007 -3.790274832e-007 -26.6576004
lhand  -4.419251534e-031 -36.96220016 -10.70400047
lfingers  90 7.125020027 -90
lthumb  94.85142675 -25.53707256 101.1382397
rclavicle  0 -4.497500157e-015 -2.743230041e-014
rhumerus  -45.90090179 -25.19690132 -67.64309692
rradius  -5.16745672e-007 2.214343908e-008 39.44620132
rwrist  -3.062178075e-005 0.020962568 -149.5180054
rhand  -3.534725302e-031 -2.586210012 -7.559510231
rfingers  -90 -7.125020027 -90
rthumb  -86.52009333 -8.094882938 -66.64269016
rfemur  -11.55719852 15.81174088 13.73155022
rtibia  -1.19370091 0.1296927929 20.95811653
rfoot  -0.2032324374 -20.07065773 -38.47904968
rtoes  4.075155514 19.59709229 -101.9922835
lfemur  -8.230771065 -17.88305473 -19.51410294
ltibia  2.052065849 -0.1627048254 15.16936684
lfoot  0.5769169927 -25.43129158 36.19469833
ltoes  -8.738665583 -18.06061251 -116.3726366
26
root  34.87728449 36.51030533 -14.91271642 8.136880875 -1.834112167 3.276382685
lowerback  -8.567376137 0.07327260077 0.002310107462
upperback  -3.294680119 0.5140755773 -3.17076993
thorax  1.420289993 0.3922893703 -3.226042509
lowerneck  -14.73770046 -0.5195609927 -0.6144329906
upperneck  15.68659973 -1.415459991 6.262159824
head  7.293715 -0.0004127009597 2.021402359
lclavicle  0 -4.497500157e-015 -2.743230041e-014
lhumerus  -44.91320038 26.50419998 69.11750031
lradius  -0.009002206847 -6.507048965e-006 30.07339478
lwrist  4.824992743e-007 -3.790274832e-007 -26.57419968
lhand  -0 -36.95000076 -10.71609974
lfingers  90 7.125020027 -90
lthumb  94.84828971 -25.54945248 101.1262778
rclavicle  0 -4.497500157e-015 -2.743230041e-014
rhumerus  -45.8146019 -24.81500053 -67.93479919
rradius  -5.16745672e-007 2.214343908e-008 39.72679901
rwrist  -3.062178075e-005 0.020962568 -149.7929993
rhand  -1.767346803e-031 -2.574810028 -7.73443985
rfingers  -90 -7.125020027 -90
rthumb  -86.58805403 -7.934849772 -66.64129338
rfemur  -11.56363678 15.77355099 13.73083973
rtibia  -1.195624948 0.1164945439 20.96254158
rfoot  -0.2070489526 -20.09947586 -38.46059418
rtoes  4.052459762 19.60162071 -101.924624
lfemur  -8.27449131 -17.93484879 -19.4961338
ltibia  2.014512539 -0.1916008592 15.2271204
lfoot  0.5625017285 -25.4008503 36.19011688
ltoes  -8.717515768 -18.07056693 -116.3044346
27
root  34.87691203 36.50980672 -14.91550986 8.125647545 -1.812996387 3.268494844
lowerback  -8.590000153 0.07477897406 0.0007619514945
upperback  -3.298599958 0.5165420175 -3.17076993
thorax  1.429090023 0.3937599957 -3.223443985
lowerneck  -14.69309998 -0.5043309927 -0.5445560217
upperneck  15.62339973 -1.396669984 6.193160057
head  7.266885757 0.002608679468 1.985536456
lclavicle  0 -4.497500157e-015 -2.743230041e-014
lhumerus  -44.91772842 26.52537346 69.11042023
lradius  -0.009002206847 -6.507048965e-006 30.08373451
lwrist  4.824992743e-007 -3.790274832e-007 -26.61090088
lhand  -4.418578408e-031 -36.95059967 -10.63599968
lfingers  90 7.125020027 -90
lthumb  94.83143233 -25.4707081 101.1195582
rclavicle  0 -4.497500157e-015 -2.743230041e-014
rhumerus  -45.73899841 -24.18720055 -68.36489868
rradius  -5.16745672e-007 2.214343908e-008 40.11439896
rwrist  -3.062178075e-005 0.020962568 -150.4620056
rhand  -1.767255011e-031 -2.507760048 -7.639910221
rfingers  -90 -7.125020027 -90
rthumb  -86.5378806 -8.025251906 -66.57076452
rfemur  -11.55766106 15.76986027 13.75305557
rtibia  -1.200088143 0.1491236687 20.97532654
rfoot  -0.1999676675 -20.04351044 -38.44886017
rtoes  4.050399341 19.60203051 -101.9184823
lfemur  -8.279210091 -17.93648148 -19.4753952
ltibia  2.002043962 -0.1847046614 15.24350643
lfoot  0.5599447489 -25.41967583 36.17996216
ltoes  -8.712032533 -18.07314272 -116.2867587
28
root  34.87695108 36.50980972 -14.91903771 8.130773544 -1.800098896 3.287406683
lowerback  -8.613370895 0.07720753551 0.01262497995
upperback  -3.297346592 0.5194050074 -3.17076993
thorax  1.452370048 0.397557199 -3.22286272
lowerneck  -14.70100021 -0.4887300134 -0.4954119921
upperneck  15.61190033 -1.381069899 6.162899971
head  7.258474827 0.01048736554 1.972786188
lclavicle  0 -4.497500157e-015 -2.743230041e-014
lhumerus  -44.92750168 26.60829926 69.06839752
lradius  -0.009002206847 -6.507048965e-006 30.09729958
lwrist  4.824992743e-007 -3.790274832e-007 -26.6779995
lhand  -4.420691827e-031 -36.98699951 -10.59319973
lfingers  90 7.125020027 -90
lthumb  94.83928472 -25.42742386 101.1545138
rclavicle  0 -4.497500157e-015 -2.743230041e-014
rhumerus  -45.63570023 -23.57019997 -68.80349731
rradius  -5.16745672e-007 2.214343908e-008 40.53979874
rwrist  -3.062178075e-005 0.020962568 -151.0279999
rhand  -1.767014456e-031 -2.322849989 -7.412879944
rfingers  -90 -7.125020027 -90
rthumb  -86.41200974 -8.243015807 -66.37767088
rfemur  -11.60288715 15.79314232 13.73913574
rtibia  -1.224461198 0.1520454735 21.04480553
rfoot  -0.2429259568 -20.04294395 -38.49414825
rtoes  4.076469224 19.59682935 -101.9962003
lfemur  -8.260824203 -17.95853615 -19.51074028
ltibia  2.02751112 -0.1866536438 15.1997118
lfoot  0.555991292 -25.3829174 36.19029617
ltoes  -8.685216531 -18.08571043 -116.2003489
29
root  34.87719138 36.51038343 -14.92239434 8.1453619 -1.793813229 3.280207396
lowerback  -8.605771065 0.0822288394 -0.01108287647
upperback  -3.294156551 0.5289679766 -3.178519964
thorax  1.444110036 0.402267009 -3.225670099
lowerneck  -14.76119995 -0.5392919779 -0.6145359874
upperneck  15.68929958 -1.447870016 6.296339989
head  7.299987316 -0.01156208757 2.029742956
lclavicle  0 -4.497500157e-015 -2.743230041e-014
lhumerus  -44.92490005 26.57209969 69.07039642
lradius  -0.009002206847 -6.507048965e-006 30.09749985
lwrist  4.824992743e-007 -3.790274832e-007 -26.64999771
lhand  -4.418068011e-031 -36.94179916 -10.60009956
lfingers  90 7.125020027 -90
lthumb  94.81965181 -25.43580319 101.1068474
rclavicle  0 -4.497500157e-015 -2.743230041e-014
rhumerus  -45.56470108 -22.92020035 -69.23899841
rradius  -5.16745672e-007 2.214343908e-008 41.00320053
rwrist  -3.062178075e-005 0.020962568 -151.5780029
rhand  -1.766929654e-031 -2.254040003 -7.439350128
rfingers  -90 -7.125020027 -90
rthumb  -86.40977724 -8.222395135 -66.31215948
rfemur  -11.62122822 15.77019501 13.74381638
rtibia  -1.225311875 0.1368221045 21.04654503
rfoot  -0.2476283461 -20.0795269 -38.48310852
rtoes  4.056153959 19.60088542 -101.9356359
lfemur  -8.316098213 -17.97809601 -19.47496605
ltibia  1.994620204 -0.190326646 15.25049496
lfoot  0.5667318106 -25.4073391 36.21715927
ltoes  -8.652820903 -18.10082826 -116.0960369
30
root  34.87723043 36.51063273 -14.92614145 8.155540466 -1.780609846 3.279098272
lowerback  -8.612819672 0.08997433633 -0.01034041401
upperback  -3.292929888 0.5404049754 -3.18979001
thorax  1.448979974 0.4063850045 -3.236680031
lowerneck  -14.71360016 -0.5255619884 -0.5367040038
upperneck  15.62419987 -1.436179876 6.255010128
head  7.276619911 -0.008888419718 1.99785006
lclavicle  0 -4.497500157e-015 -2.743230041e-014
lhumerus  -44.92089844 26.55439949 69.06390381
lradius  -0.009002206847 -6.507048965e-006 30.11035156
lwrist  4.824992743e-007 -3.790274832e-007 -26.58589935
lhand  -0 -36.98189926 -10.58370018
lfingers  90 7.125020027 -90
lthumb  94.83488663 -25.41831942 101.148216
rclavicle  0 -4.497500157e-015 -2.743230041e-014
rhumerus  -45.5257988 -22.29089928 -69.70149994
rradius  -5.16745672e-007 2.214343908e-008 41.46170044
rwrist  -3.062178075e-005 0.020962568 -152.3139954
rhand  -1.767025448e-031 -2.331619978 -7.522240162
rfingers  -90 -7.125020027 -90
rthumb  -86.45789807 -8.142382128 -66.39250825
rfemur  -11.63524628 15.72697926 13.73254204
rtibia  -1.225025296 0.1141522378 21.04494095
rfoot  -0.2576089501 -20.12054253 -38.48262405
rtoes  4.073592851 19.59740493 -101.9876244
lfemur  -8.375289917 -17.97437668 -19.44976425
ltibia  1.960442185 -0.190326497 15.31072044
lfoot  0.5688619018 -25.43737602 36.20116425
ltoes  -8.694286488 -18.08146511 -116.2295687
31
root  34.87799637 36.51153384 -14.92832214 8.180667877 -1.78037858 3.280654907
lowerback  -8.585410118 0.09311339259 -0.01772848889
upperback  -3.296930075 0.5452160239 -3.199029922
thorax  1.430029988 0.4088180065 -3.241719961
lowerneck  -14.69439983 -0.5022169948 -0.480753988
upperneck  15.60589981 -1.409199834 6.218570232
head  7.265699863 0.003095342778 1.97913003
lclavicle  0 -4.497500157e-015 -2.743230041e-014
lhumerus  -44.93560028 26.57279968 69.05210114
lradius  -0.009002206847 -6.507048965e-006 30.11788177
lwrist  4.824992743e-007 -3.790274832e-007 -26.60750008
lhand  -4.418613151e-031 -36.95119858 -10.53829956
lfingers  90 7.125020027 -90
lthumb  94.81083561 -25.37489606 101.1111658
rclavicle  0 -4.497500157e-015 -2.743230041e-014
rhumerus  -45.47980118 -21.6576004 -70.14499664
rradius  -5.16745672e-007 2.214343908e-008 41.95040131
rwrist  -3.062178075e-005 0.020962568 -152.9309998
rhand  -1.767004104e-031 -2.314559937 -7.386290073
rfingers  -90 -7.125020027 -90
rthumb  -86.39967421 -8.267800093 -66.36799871
rfemur  -11.67149258 15.71897697 13.72916794
rtibia  -1.229109883 0.113104783 21.0563736
rfoot  -0.2692401707 -20.11388588 -38.50588608
rtoes  4.083997502 19.59532089 -102.0186468
lfemur  -8.42963028 -17.93362427 -19.42521095
ltibia  1.949918866 -0.1698079258 15.34154129
lfoot  0.5790064931 -25.48913193 36.17472076
ltoes  -8.7367967 -18.06149335 -116.3666085
